<svg width="81" height="118" viewBox="0 0 81 118" fill="none" xmlns="http://www.w3.org/2000/svg">
<path d="M10.3951 65.7175V76.3245H9.10874V71.9137C8.78715 72.1237 8.25116 72.2287 7.71517 72.2287C6.64319 72.2287 6 71.5986 6 70.3384V65.7175H7.28638V70.3384C7.28638 70.9685 7.50077 71.2836 8.14396 71.2836C8.57275 71.2836 8.89434 71.1785 9.21594 70.9685V65.7175H10.3951V65.7175Z" fill="#1D1D1B"/>
<path d="M11.5745 65.7175H15.0048V66.7677H12.8608V70.2334H14.8976V71.3886H12.8608V75.1693H15.0048V76.3245H11.5745C11.5745 76.3245 11.5745 65.7175 11.5745 65.7175Z" fill="#1D1D1B"/>
<path d="M19.1852 72.2287H20.3644V74.4341C20.3644 75.6943 19.7212 76.4295 18.3276 76.4295H17.8988C16.6124 76.4295 15.8621 75.7994 15.8621 74.4341V67.6079C15.8621 66.3476 16.5052 65.6125 17.8988 65.6125H18.3276C19.614 65.6125 20.2572 66.2426 20.2572 67.5028V69.3932H19.078V67.5028C19.078 66.9777 18.7564 66.6627 18.2204 66.6627H17.8988C17.3628 66.6627 17.0412 66.9777 17.0412 67.5028V74.4341C17.0412 74.9592 17.3628 75.2743 17.8988 75.2743H18.2204C18.7564 75.2743 19.078 74.9592 19.078 74.4341V72.2287H19.1852V72.2287Z" fill="#1D1D1B"/>
<path d="M23.6876 76.3245H22.4012V66.8727H20.7932V65.7175H25.2955V66.7677H23.6876V76.3245Z" fill="#1D1D1B"/>
<path d="M27.332 70.3384H29.3688V65.7175H30.6552V76.3245H29.3688V71.4936H27.332V76.3245H26.0457V65.7175H27.332V70.3384Z" fill="#1D1D1B"/>
<path d="M33.0137 65.7175V69.8133H33.8713C35.1576 69.8133 35.908 70.4434 35.908 71.8087V74.3291C35.908 75.5893 35.2648 76.3245 33.8713 76.3245H31.7273V65.7175H33.0137ZM34.6216 74.3291V71.7036C34.6216 71.1785 34.3 70.8635 33.7641 70.8635H32.9065V75.0643H33.7641C34.4072 75.1693 34.6216 74.8542 34.6216 74.3291ZM36.6584 76.3245V65.7175H37.9448V76.3245H36.6584Z" fill="#1D1D1B"/>
<path d="M40.3034 65.7176V73.594L42.1258 65.7176H43.841V76.3245H42.6618V67.923L40.7322 76.3245H39.2314V65.7176H40.3034ZM40.089 63.7222V63.5121H40.9466V63.6172C40.9466 63.9322 41.0538 64.0372 41.3754 64.0372H41.4826C41.8042 64.0372 41.9114 63.9322 41.9114 63.6172V63.5121H42.769V63.7222C42.769 64.4573 42.3402 64.8774 41.4826 64.8774H41.2682C40.4106 64.8774 40.089 64.5623 40.089 63.7222Z" fill="#1D1D1B"/>
<path d="M49.201 76.3245H47.9146V66.8727H46.4138V65.7175H50.9161V66.7677H49.3082V76.3245H49.201Z" fill="#1D1D1B"/>
<path d="M51.5593 65.7175H54.9897V66.7677H52.8457V70.2334H54.8825V71.3886H52.8457V75.1693H54.9897V76.3245H51.5593V65.7175Z" fill="#1D1D1B"/>
<path d="M57.2409 70.3384H59.2777V65.7175H60.5641V76.3245H59.2777V71.4936H57.2409V76.3245H56.0618V65.7175H57.3481V70.3384H57.2409Z" fill="#1D1D1B"/>
<path d="M62.2793 76.3245V78.0048H61.1001V75.1693H61.5289C61.7433 74.8542 61.8505 74.6442 61.9577 74.4341C62.0649 74.2241 62.1721 73.909 62.1721 73.3839C62.2793 72.9639 62.2793 72.3337 62.2793 71.7036V65.7175H66.1384V75.1693H66.6744V78.0048H65.4952V76.3245H62.2793V76.3245ZM62.8153 75.1693H64.9592V66.7677H63.4585V72.0187C63.4585 72.6488 63.4585 73.0689 63.3513 73.489C63.2441 73.909 63.2441 74.2241 63.1369 74.4341C63.0297 74.6442 62.9225 74.8542 62.8153 75.1693Z" fill="#1D1D1B"/>
<path d="M67.4243 65.7175H70.8547V66.7677H68.7107V70.2334H70.7474V71.3886H68.7107V75.1693H70.8547V76.3245H67.4243V65.7175Z" fill="#1D1D1B"/>
<path d="M73.1057 72.3337V76.3245H71.8193V65.7175H73.9633C75.2497 65.7175 76 66.3476 76 67.7129V70.4434C76 71.7036 75.3569 72.4388 73.9633 72.4388L73.1057 72.3337ZM74.8209 67.6079C74.8209 67.0828 74.4993 66.7677 73.9633 66.7677H73.1057V71.1785H73.9633C74.4993 71.1785 74.8209 70.8635 74.8209 70.3384V67.6079Z" fill="#1D1D1B"/>
<path d="M18.221 97.2233C18.9906 97.2233 19.6145 96.6121 19.6145 95.858C19.6145 95.104 18.9906 94.4928 18.221 94.4928C17.4513 94.4928 16.8274 95.104 16.8274 95.858C16.8274 96.6121 17.4513 97.2233 18.221 97.2233Z" fill="#AD2221"/>
<path d="M69.0326 95.0179L60.8855 82.5206C60.4568 81.8905 59.9208 81.4704 59.0632 81.2604C58.3128 81.0504 57.5624 81.2604 56.9192 81.5754L53.7033 83.5708C53.0601 83.9909 52.6313 84.516 52.4169 85.3561C52.3097 85.7762 52.3097 86.0913 52.4169 86.5114C50.5945 86.8264 48.665 86.7214 46.9498 86.0913L44.4843 85.2511C42.8763 84.726 41.1611 85.1461 39.9819 86.1963L37.838 85.9863C36.4444 85.7762 35.0508 86.0913 33.8717 86.7214L33.0141 87.1415C32.3709 87.4565 31.6205 87.4565 31.0845 87.2465L29.5837 86.7214C29.6909 86.3013 29.6909 85.8812 29.6909 85.4612C29.4765 84.726 29.0478 84.0959 28.4046 83.6758L25.1886 81.6805C23.9023 80.8403 22.1871 81.2604 21.3295 82.5206L13.1825 95.1229C12.7537 95.7531 12.6465 96.4882 12.8609 97.2233C13.0753 97.9585 13.504 98.5886 14.1472 99.0087L17.3632 101.004C17.792 101.319 18.328 101.424 18.8639 101.424C19.8287 101.424 20.6863 101.004 21.2223 100.164L21.3295 100.059L23.1519 101.214C22.1871 102.369 22.2943 104.05 23.3663 105.1C23.9022 105.625 24.5454 105.94 25.2958 105.94C25.2958 106.675 25.6174 107.305 26.1534 107.83C26.6894 108.355 27.4398 108.67 28.083 108.67C28.083 109.406 28.4046 110.036 28.9406 110.561C29.4765 111.086 30.2269 111.401 30.8701 111.401C30.8701 112.136 31.1917 112.766 31.7277 113.291C32.3709 113.921 33.0141 114.131 33.7645 114.131C34.5148 114.131 35.2652 113.816 35.8012 113.291L36.6588 112.451L38.0524 114.131L38.1596 114.236C38.8028 114.867 39.6603 115.287 40.6251 115.287C41.5899 115.287 42.4475 114.972 43.0907 114.236C43.7339 113.606 44.0555 112.871 44.0555 112.031C45.2346 112.241 46.4138 111.926 47.2714 111.191L47.3786 111.086C48.0218 110.456 48.3434 109.721 48.3434 108.88C49.5226 109.091 50.7017 108.775 51.5593 107.935C52.2025 107.305 52.5241 106.57 52.5241 105.73C52.8457 105.835 53.0601 105.835 53.3817 105.835C54.3465 105.835 55.2041 105.415 55.8472 104.68C56.276 104.155 56.5976 103.525 56.7048 102.894L60.9927 100.374C61.5287 101.109 62.3863 101.529 63.2439 101.529C63.7799 101.529 64.3159 101.424 64.7447 101.109L67.9606 99.1137C68.6038 98.6936 69.0326 98.1685 69.247 97.3284C69.5686 96.4882 69.3542 95.648 69.0326 95.0179ZM43.8411 90.3971C43.3051 90.187 42.6619 90.3971 42.4475 90.8172L41.2683 92.6025C40.9467 93.0226 40.5179 93.2326 39.9819 93.0226C39.3388 92.8125 39.0172 92.1824 39.1244 91.6573C39.446 90.3971 39.8747 89.2419 40.6251 88.1917L40.7323 87.9816C41.3755 87.0365 42.5547 86.6164 43.7339 87.0365L46.1994 87.8766C48.4506 88.6117 50.9161 88.7168 53.2745 88.2967L60.028 98.6936L56.4904 100.794C56.276 100.479 56.0616 100.059 55.8472 99.8488L53.3817 96.9083C51.3449 94.3878 48.5578 92.4975 45.5562 91.2372L43.8411 90.3971ZM18.328 99.3237L15.112 97.3284C14.8976 97.2233 14.7904 97.0133 14.6832 96.6982C14.576 96.4882 14.6832 96.2782 14.7904 95.9631L22.9375 83.5708C23.2591 83.1507 23.7951 83.0457 24.2238 83.2558L27.4398 85.2511C27.6542 85.3561 27.7614 85.5662 27.8686 85.8812C27.9758 86.0913 27.8686 86.3013 27.7614 86.6164L19.5071 99.2187C19.2927 99.5338 18.6495 99.6388 18.328 99.3237ZM24.4382 102.264L26.7966 99.9538C27.011 99.7438 27.2254 99.6388 27.547 99.6388C27.8686 99.6388 28.083 99.7438 28.2974 99.9538C28.7262 100.374 28.7262 101.004 28.2974 101.319L25.939 103.63C25.6174 103.945 24.867 103.945 24.5454 103.63C24.2238 103.314 24.1166 102.684 24.4382 102.264ZM27.3326 104.995L29.6909 102.684L30.1197 102.264C30.3341 102.054 30.5485 101.949 30.8701 101.949C31.1917 101.949 31.4061 102.054 31.6205 102.264C31.8349 102.474 31.9421 102.684 31.9421 102.999C31.9421 103.209 31.8349 103.524 31.6205 103.735L28.7262 106.57C28.2974 106.99 27.6542 106.99 27.3326 106.57C26.9038 106.045 26.9038 105.415 27.3326 104.995ZM30.1197 107.725L32.4781 105.415C32.6925 105.205 32.9069 105.1 33.2285 105.1C33.5501 105.1 33.7645 105.205 33.9789 105.415C34.1933 105.625 34.3005 105.835 34.3005 106.15C34.3005 106.465 34.1933 106.675 33.9789 106.885L31.6205 109.196C31.1917 109.616 30.5485 109.616 30.2269 109.196C29.6909 108.775 29.6909 108.145 30.1197 107.725ZM34.4076 111.926C34.0861 112.241 33.3357 112.241 33.0141 111.926C32.7997 111.716 32.6925 111.506 32.6925 111.191C32.6925 110.876 32.7997 110.666 33.0141 110.456L34.9436 108.565C35.158 108.355 35.3724 108.25 35.694 108.25C36.0156 108.25 36.23 108.355 36.4444 108.565C36.8732 108.986 36.8732 109.616 36.4444 109.931L34.4076 111.926ZM54.5609 103.314C54.2393 103.63 53.8105 103.735 53.3817 103.735H53.2745C52.8457 103.735 52.3097 103.524 51.9881 103.209L51.6665 102.789L49.3082 100.479C48.9866 100.164 48.3434 100.164 48.0218 100.479C47.7002 100.794 47.7002 101.424 48.0218 101.739L50.3801 104.05C50.7017 104.365 50.8089 104.785 50.8089 105.205C50.8089 105.625 50.5945 106.045 50.3801 106.36C49.737 106.99 48.665 106.99 48.0218 106.36L45.6634 104.05C45.3418 103.735 44.6986 103.735 44.3771 104.05C44.0555 104.365 44.0555 104.995 44.3771 105.31L46.1994 107.095C46.8426 107.725 46.8426 108.775 46.3066 109.406C46.3066 109.406 46.1994 109.406 46.1994 109.511C45.5562 110.141 44.4843 110.141 43.8411 109.511L42.1259 107.83C41.8043 107.515 41.1611 107.515 40.8395 107.83C40.5179 108.145 40.5179 108.775 40.8395 109.091L42.0187 110.246C42.3403 110.561 42.4475 110.981 42.4475 111.401C42.4475 111.821 42.2331 112.241 42.0187 112.556C41.3755 113.186 40.3035 113.186 39.6603 112.661L38.1596 110.876C38.91 109.721 38.91 108.145 37.838 107.2C37.4092 106.78 36.8732 106.57 36.3372 106.465C36.3372 106.36 36.4444 106.15 36.4444 106.045C36.4444 105.31 36.1228 104.575 35.5868 104.05C35.158 103.63 34.622 103.314 34.0861 103.314C34.0861 103.209 34.1933 102.999 34.1933 102.894C34.1933 102.159 33.8717 101.424 33.3357 100.899C32.7997 100.374 32.0493 100.059 31.2989 100.059C31.1917 100.059 30.9773 100.059 30.8701 100.164C30.7629 99.6388 30.5485 99.1137 30.1197 98.6936C28.9406 97.5384 27.1182 97.5384 26.0462 98.6936L24.867 99.8488L22.7231 98.4836L29.2621 88.4017L30.8701 89.0318C32.0493 89.4519 33.3357 89.4519 34.5148 88.8218L35.3724 88.4017C36.23 87.9816 37.1948 87.7716 38.1596 87.8766L39.2316 88.0867C38.5884 89.1368 38.2668 90.2921 37.9452 91.4473C37.6236 92.9175 38.4812 94.4928 39.9819 95.0179H40.0891C41.3755 95.333 42.7691 94.8079 43.5195 93.7577L44.2699 92.4975L45.449 92.9175C48.2362 94.0728 50.5945 95.7531 52.5241 97.9585L54.9897 101.004L55.0969 101.109C55.4184 101.424 55.5256 101.844 55.5256 102.264C54.9897 102.579 54.7753 102.999 54.5609 103.314ZM67.5318 96.8033C67.4246 97.0133 67.3174 97.2233 67.103 97.4334L63.8871 99.4287C63.4583 99.7438 62.9223 99.5338 62.6007 99.1137L54.4537 86.6164C54.3465 86.4063 54.2393 86.1963 54.3465 85.8812C54.4537 85.6712 54.5609 85.4612 54.7753 85.2511L57.9912 83.2558C58.2056 83.1507 58.3128 83.1507 58.42 83.1507C58.5272 83.1507 58.5272 83.1507 58.6344 83.1507C58.8488 83.2558 59.0632 83.3608 59.2776 83.5708L67.4246 96.1731C67.5318 96.2782 67.5318 96.4882 67.5318 96.8033Z" fill="#AD2221"/>
<path d="M63.887 97.2233C64.6566 97.2233 65.2806 96.6121 65.2806 95.858C65.2806 95.104 64.6566 94.4928 63.887 94.4928C63.1173 94.4928 62.4934 95.104 62.4934 95.858C62.4934 96.6121 63.1173 97.2233 63.887 97.2233Z" fill="#AD2221"/>
<path d="M49.5227 9.74217C46.0923 11.4225 41.6972 9.74217 38.2669 8.90202C37.4093 8.90202 36.5517 9.74217 35.6941 9.74217C35.6941 7.22171 34.8366 4.59622 35.6941 2.91591C37.4093 1.2356 39.9821 2.07576 43.5196 3.75607C45.2348 4.59622 47.9147 3.75607 49.6299 2.91591C49.5227 5.5414 49.5227 7.22171 49.5227 9.74217Z" fill="#AD2221"/>
<path d="M21.3295 36.7321L29.9054 33.6866V59.9414H30.0126H36.0157V15.8333L48.5578 23.1846V59.8364H50.3802H51.2378H52.3098V47.024L61.4216 53.4302V59.8364H65.7095V48.1792L61.3144 45.4487V32.3213L52.3098 26.8603V21.3993L36.2301 11.7375V11.6325H36.1229H36.0157V11.7375L27.3326 15.2032V29.3808L16.3984 33.6866V59.9414H21.3295V36.7321ZM52.3098 31.1661L58.5272 34.8418V43.6634L52.3098 39.6727V31.1661Z" fill="#AD2221"/>
<path d="M36.1228 3.23096V13.4178" stroke="#AD2221" stroke-miterlimit="10" stroke-linecap="round" stroke-linejoin="round"/>
</svg>
