<svg width="52" height="77" viewBox="0 0 52 77" fill="none" xmlns="http://www.w3.org/2000/svg">
<path d="M2.57799 43.374V49.5956H1.82346V47.0084C1.63482 47.1316 1.32043 47.1932 1.00605 47.1932C0.377267 47.1932 0 46.8236 0 46.0844V43.374H0.754534V46.0844C0.754534 46.454 0.88029 46.6388 1.25756 46.6388C1.50907 46.6388 1.6977 46.5772 1.88634 46.454V43.374H2.57799V43.374Z" fill="#1D1D1B"/>
<path d="M3.26965 43.374H5.28174V43.99H4.02419V46.0228H5.21887V46.7004H4.02419V48.918H5.28174V49.5956H3.26965C3.26965 49.5956 3.26965 43.374 3.26965 43.374Z" fill="#1D1D1B"/>
<path d="M7.734 47.1932H8.42566V48.4868C8.42566 49.226 8.04839 49.6572 7.23098 49.6572H6.97947C6.22493 49.6572 5.78479 49.2876 5.78479 48.4868V44.4828C5.78479 43.7436 6.16206 43.3124 6.97947 43.3124H7.23098C7.98552 43.3124 8.36278 43.682 8.36278 44.4212V45.53H7.67113V44.4212C7.67113 44.1132 7.48249 43.9284 7.1681 43.9284H6.97947C6.66508 43.9284 6.47645 44.1132 6.47645 44.4212V48.4868C6.47645 48.7948 6.66508 48.9796 6.97947 48.9796H7.1681C7.48249 48.9796 7.67113 48.7948 7.67113 48.4868V47.1932H7.734V47.1932Z" fill="#1D1D1B"/>
<path d="M10.3748 49.5956H9.62029V44.0516H8.67712V43.374H11.318V43.99H10.3748V49.5956Z" fill="#1D1D1B"/>
<path d="M12.5127 46.0844H13.7074V43.374H14.4619V49.5956H13.7074V46.762H12.5127V49.5956H11.7582V43.374H12.5127V46.0844Z" fill="#1D1D1B"/>
<path d="M15.8452 43.374V45.7764H16.3483C17.1028 45.7764 17.5429 46.146 17.5429 46.9468V48.4252C17.5429 49.1644 17.1657 49.5956 16.3483 49.5956H15.0907V43.374H15.8452ZM16.7884 48.4252V46.8852C16.7884 46.5772 16.5998 46.3924 16.2854 46.3924H15.7824V48.8564H16.2854C16.6626 48.918 16.7884 48.7332 16.7884 48.4252ZM17.9831 49.5956V43.374H18.7376V49.5956H17.9831Z" fill="#1D1D1B"/>
<path d="M20.121 43.374V47.994L21.1899 43.374H22.1959V49.5956H21.5043V44.6676L20.3725 49.5956H19.4922V43.374H20.121ZM19.9952 42.2036V42.0804H20.4982V42.142C20.4982 42.3268 20.5611 42.3884 20.7497 42.3884H20.8126C21.0013 42.3884 21.0641 42.3268 21.0641 42.142V42.0804H21.5672V42.2036C21.5672 42.6348 21.3156 42.8812 20.8126 42.8812H20.6869C20.1838 42.8812 19.9952 42.6964 19.9952 42.2036Z" fill="#1D1D1B"/>
<path d="M25.3398 49.5956H24.5852V44.0516H23.705V43.374H26.3458V43.99H25.4027V49.5956H25.3398Z" fill="#1D1D1B"/>
<path d="M26.7231 43.374H28.7352V43.99H27.4777V46.0228H28.6724V46.7004H27.4777V48.918H28.7352V49.5956H26.7231V43.374Z" fill="#1D1D1B"/>
<path d="M30.0557 46.0844H31.2504V43.374H32.0049V49.5956H31.2504V46.762H30.0557V49.5956H29.364V43.374H30.1185V46.0844H30.0557Z" fill="#1D1D1B"/>
<path d="M33.0109 49.5956V50.5812H32.3192V48.918H32.5707C32.6965 48.7332 32.7594 48.61 32.8222 48.4868C32.8851 48.3636 32.948 48.1788 32.948 47.8708C33.0109 47.6244 33.0109 47.2548 33.0109 46.8852V43.374H35.2745V48.918H35.5889V50.5812H34.8972V49.5956H33.0109V49.5956ZM33.3253 48.918H34.5828V43.99H33.7025V47.07C33.7025 47.4396 33.7025 47.686 33.6396 47.9324C33.5768 48.1788 33.5768 48.3636 33.5139 48.4868C33.451 48.61 33.3881 48.7332 33.3253 48.918Z" fill="#1D1D1B"/>
<path d="M36.0291 43.374H38.0411V43.99H36.7836V46.0228H37.9783V46.7004H36.7836V48.918H38.0411V49.5956H36.0291V43.374Z" fill="#1D1D1B"/>
<path d="M39.3616 47.2548V49.5956H38.6071V43.374H39.8646C40.6191 43.374 41.0593 43.7436 41.0593 44.5444V46.146C41.0593 46.8852 40.682 47.3164 39.8646 47.3164L39.3616 47.2548ZM40.3676 44.4828C40.3676 44.1748 40.179 43.99 39.8646 43.99H39.3616V46.5772H39.8646C40.179 46.5772 40.3676 46.3924 40.3676 46.0844V44.4828Z" fill="#1D1D1B"/>
<path d="M7.16812 61.854C7.61957 61.854 7.98553 61.4955 7.98553 61.0532C7.98553 60.611 7.61957 60.2524 7.16812 60.2524C6.71668 60.2524 6.35071 60.611 6.35071 61.0532C6.35071 61.4955 6.71668 61.854 7.16812 61.854Z" fill="#AD2221"/>
<path d="M36.9722 60.5604L32.1935 53.23C31.942 52.8604 31.6276 52.614 31.1245 52.4908C30.6844 52.3676 30.2443 52.4908 29.867 52.6756L27.9806 53.846C27.6034 54.0924 27.3519 54.4004 27.2261 54.8932C27.1632 55.1396 27.1632 55.3244 27.2261 55.5708C26.1572 55.7556 25.0254 55.694 24.0193 55.3244L22.5732 54.8316C21.63 54.5236 20.6239 54.77 19.9323 55.386L18.6747 55.2628C17.8573 55.1396 17.0399 55.3244 16.3482 55.694L15.8452 55.9404C15.468 56.1252 15.0278 56.1252 14.7134 56.002L13.8331 55.694C13.896 55.4476 13.896 55.2012 13.896 54.9548C13.7703 54.5236 13.5187 54.154 13.1415 53.9076L11.2551 52.7372C10.5006 52.2444 9.49456 52.4908 8.99153 53.23L4.21282 60.622C3.9613 60.9916 3.89843 61.4228 4.02418 61.854C4.14994 62.2852 4.40145 62.6548 4.77872 62.9012L6.66505 64.0716C6.91656 64.2564 7.23095 64.318 7.54534 64.318C8.11124 64.318 8.61427 64.0716 8.92865 63.5788L8.99153 63.5172L10.0605 64.1948C9.49456 64.8724 9.55743 65.858 10.1862 66.474C10.5006 66.782 10.8779 66.9668 11.318 66.9668C11.318 67.398 11.5066 67.7676 11.821 68.0756C12.1354 68.3836 12.5756 68.5684 12.9528 68.5684C12.9528 68.9996 13.1415 69.3692 13.4559 69.6772C13.7703 69.9852 14.2104 70.17 14.5877 70.17C14.5877 70.6012 14.7763 70.9708 15.0907 71.2788C15.468 71.6484 15.8452 71.7716 16.2854 71.7716C16.7255 71.7716 17.1657 71.5868 17.48 71.2788L17.9831 70.786L18.8005 71.7716L18.8634 71.8332C19.2406 72.2028 19.7436 72.4492 20.3095 72.4492C20.8754 72.4492 21.3785 72.2644 21.7557 71.8332C22.133 71.4636 22.3216 71.0324 22.3216 70.5396C23.0133 70.6628 23.705 70.478 24.208 70.0468L24.2709 69.9852C24.6481 69.6156 24.8368 69.1844 24.8368 68.6916C25.5284 68.8148 26.2201 68.63 26.7231 68.1372C27.1004 67.7676 27.289 67.3364 27.289 66.8436C27.4776 66.9052 27.6034 66.9052 27.792 66.9052C28.3579 66.9052 28.8609 66.6588 29.2382 66.2276C29.4897 65.9196 29.6783 65.55 29.7412 65.1804L32.2563 63.702C32.5707 64.1332 33.0738 64.3796 33.5768 64.3796C33.8912 64.3796 34.2056 64.318 34.4571 64.1332L36.3434 62.9628C36.7207 62.7164 36.9722 62.4084 37.0979 61.9156C37.2866 61.4228 37.1608 60.93 36.9722 60.5604ZM22.1959 57.85C21.8815 57.7268 21.5042 57.85 21.3785 58.0964L20.6868 59.1436C20.4982 59.39 20.2467 59.5132 19.9323 59.39C19.555 59.2668 19.3664 58.8972 19.4293 58.5892C19.6179 57.85 19.8694 57.1724 20.3095 56.5564L20.3724 56.4332C20.7497 55.8788 21.4413 55.6324 22.133 55.8788L23.5792 56.3716C24.8996 56.8028 26.3458 56.8644 27.7291 56.618L31.6904 62.7164L29.6155 63.9484C29.4897 63.7636 29.364 63.5172 29.2382 63.394L27.792 61.6692C26.5973 60.1908 24.9625 59.082 23.2019 58.3428L22.1959 57.85ZM7.23095 63.086L5.34462 61.9156C5.21886 61.854 5.15598 61.7308 5.09311 61.546C5.03023 61.4228 5.09311 61.2996 5.15598 61.1148L9.9347 53.846C10.1233 53.5996 10.4377 53.538 10.6892 53.6612L12.5756 54.8316C12.7013 54.8932 12.7642 55.0164 12.8271 55.2012C12.89 55.3244 12.8271 55.4476 12.7642 55.6324L7.92261 63.0244C7.79685 63.2092 7.41959 63.2708 7.23095 63.086ZM10.815 64.8108L12.1983 63.4556C12.3241 63.3324 12.4498 63.2708 12.6384 63.2708C12.8271 63.2708 12.9528 63.3324 13.0786 63.4556C13.3301 63.702 13.3301 64.0716 13.0786 64.2564L11.6953 65.6116C11.5066 65.7964 11.0665 65.7964 10.8779 65.6116C10.6892 65.4268 10.6264 65.0572 10.815 64.8108ZM12.5127 66.4124L13.896 65.0572L14.1475 64.8108C14.2733 64.6876 14.399 64.626 14.5877 64.626C14.7763 64.626 14.9021 64.6876 15.0278 64.8108C15.1536 64.934 15.2164 65.0572 15.2164 65.242C15.2164 65.3652 15.1536 65.55 15.0278 65.6732L13.3301 67.3364C13.0786 67.5828 12.7013 67.5828 12.5127 67.3364C12.2612 67.0284 12.2612 66.6588 12.5127 66.4124ZM14.1475 68.014L15.5308 66.6588C15.6566 66.5356 15.7823 66.474 15.971 66.474C16.1596 66.474 16.2854 66.5356 16.4111 66.6588C16.5369 66.782 16.5998 66.9052 16.5998 67.09C16.5998 67.2748 16.5369 67.398 16.4111 67.5212L15.0278 68.8764C14.7763 69.1228 14.399 69.1228 14.2104 68.8764C13.896 68.63 13.896 68.2604 14.1475 68.014ZM16.6626 70.478C16.474 70.6628 16.0339 70.6628 15.8452 70.478C15.7195 70.3548 15.6566 70.2316 15.6566 70.0468C15.6566 69.862 15.7195 69.7388 15.8452 69.6156L16.977 68.5068C17.1028 68.3836 17.2285 68.322 17.4172 68.322C17.6058 68.322 17.7316 68.3836 17.8573 68.5068C18.1088 68.7532 18.1088 69.1228 17.8573 69.3076L16.6626 70.478ZM28.4837 65.4268C28.295 65.6116 28.0435 65.6732 27.792 65.6732H27.7291C27.4776 65.6732 27.1632 65.55 26.9746 65.3652L26.786 65.1188L25.4027 63.7636C25.214 63.5788 24.8368 63.5788 24.6481 63.7636C24.4595 63.9484 24.4595 64.318 24.6481 64.5028L26.0314 65.858C26.2201 66.0428 26.2829 66.2892 26.2829 66.5356C26.2829 66.782 26.1572 67.0284 26.0314 67.2132C25.6542 67.5828 25.0254 67.5828 24.6481 67.2132L23.2648 65.858C23.0762 65.6732 22.6989 65.6732 22.5103 65.858C22.3216 66.0428 22.3216 66.4124 22.5103 66.5972L23.5792 67.6444C23.9565 68.014 23.9565 68.63 23.6421 68.9996C23.6421 68.9996 23.5792 68.9996 23.5792 69.0612C23.2019 69.4308 22.5732 69.4308 22.1959 69.0612L21.1898 68.0756C21.0012 67.8908 20.6239 67.8908 20.4353 68.0756C20.2467 68.2604 20.2467 68.63 20.4353 68.8148L21.127 69.4924C21.3156 69.6772 21.3785 69.9236 21.3785 70.17C21.3785 70.4164 21.2527 70.6628 21.127 70.8476C20.7497 71.2172 20.1209 71.2172 19.7436 70.9092L18.8634 69.862C19.3035 69.1844 19.3035 68.2604 18.6747 67.706C18.4232 67.4596 18.1088 67.3364 17.7944 67.2748C17.7944 67.2132 17.8573 67.09 17.8573 67.0284C17.8573 66.5972 17.6687 66.166 17.3543 65.858C17.1028 65.6116 16.7884 65.4268 16.474 65.4268C16.474 65.3652 16.5369 65.242 16.5369 65.1804C16.5369 64.7492 16.3482 64.318 16.0339 64.01C15.7195 63.702 15.2793 63.5172 14.8392 63.5172C14.7763 63.5172 14.6505 63.5172 14.5877 63.5788C14.5248 63.2708 14.399 62.9628 14.1475 62.7164C13.4559 62.0388 12.3869 62.0388 11.7582 62.7164L11.0665 63.394L9.80895 62.5932L13.6445 56.6796L14.5877 57.0492C15.2793 57.2956 16.0339 57.2956 16.7255 56.926L17.2285 56.6796C17.7316 56.4332 18.2975 56.31 18.8634 56.3716L19.4921 56.4948C19.1149 57.1108 18.9262 57.7884 18.7376 58.466C18.549 59.3284 19.052 60.2524 19.9323 60.5604H19.9952C20.7497 60.7452 21.5671 60.4372 22.0072 59.8212L22.4474 59.082L23.1391 59.3284C24.7739 60.006 26.1572 60.9916 27.289 62.2852L28.7352 64.0716L28.7981 64.1332C28.9867 64.318 29.0496 64.5644 29.0496 64.8108C28.7352 64.9956 28.6094 65.242 28.4837 65.4268ZM36.0919 61.6076C36.029 61.7308 35.9661 61.854 35.8404 61.9772L33.954 63.1476C33.7025 63.3324 33.3881 63.2092 33.1995 62.9628L28.4208 55.6324C28.3579 55.5092 28.295 55.386 28.3579 55.2012C28.4208 55.078 28.4837 54.9548 28.6094 54.8316L30.4958 53.6612C30.6215 53.5996 30.6844 53.5996 30.7473 53.5996C30.8102 53.5996 30.8102 53.5996 30.873 53.5996C30.9988 53.6612 31.1245 53.7228 31.2503 53.846L36.029 61.238C36.0919 61.2996 36.0919 61.4228 36.0919 61.6076Z" fill="#AD2221"/>
<path d="M33.954 61.854C34.4055 61.854 34.7714 61.4955 34.7714 61.0532C34.7714 60.611 34.4055 60.2524 33.954 60.2524C33.5026 60.2524 33.1366 60.611 33.1366 61.0532C33.1366 61.4955 33.5026 61.854 33.954 61.854Z" fill="#AD2221"/>
<path d="M25.5284 10.5412C23.5163 11.5268 20.9383 10.5412 18.9262 10.0484C18.4232 10.0484 17.9202 10.5412 17.4172 10.5412C17.4172 9.06284 16.9141 7.52284 17.4172 6.53724C18.4232 5.55164 19.9323 6.04444 22.0073 7.03004C23.0133 7.52284 24.5852 7.03004 25.5913 6.53724C25.5284 8.07724 25.5284 9.06284 25.5284 10.5412Z" fill="#AD2221"/>
<path d="M8.9915 26.3724L14.0217 24.586V39.986H14.0846H17.6058V14.114L24.9625 18.426V39.9244H26.0314H26.5344H27.1632V32.4092L32.5078 36.1668V39.9244H35.0229V33.0868L32.4449 31.4852V23.7852L27.1632 20.582V17.3788L17.7315 11.7116V11.65H17.6687H17.6058V11.7116L12.5127 13.7444V22.0604L6.09912 24.586V39.986H8.9915V26.3724ZM27.1632 23.1076L30.8101 25.2636V30.438L27.1632 28.0972V23.1076Z" fill="#AD2221"/>
<path d="M17.6686 6.72205V12.6972" stroke="#AD2221" stroke-miterlimit="10" stroke-linecap="round" stroke-linejoin="round"/>
</svg>
