<?xml version="1.0" encoding="utf-8"?>
<!-- Generator: Adobe Illustrator 24.3.0, SVG Export Plug-In . SVG Version: 6.00 Build 0)  -->
<svg version="1.1" id="Layer_1" xmlns="http://www.w3.org/2000/svg" xmlns:xlink="http://www.w3.org/1999/xlink" x="0px" y="0px"
	 viewBox="0 0 233.9 125" style="enable-background:new 0 0 233.9 125;" xml:space="preserve">
<style type="text/css">
	.st0{fill:#1D1D1B;}
	.st1{fill:#AD2221;}
	.st2{fill:none;stroke:#AD2221;stroke-linecap:round;stroke-linejoin:round;stroke-miterlimit:10;}
</style>
<g>
	<path class="st0" d="M85.4,54.1v22h-2.6v-9.2c-0.7,0.4-1.7,0.7-2.8,0.7c-2.2,0-3.5-1.3-3.5-3.9v-9.6h2.6v9.6c0,1.3,0.4,2,1.7,2
		c0.9,0,1.5-0.2,2.2-0.7V54.1H85.4z"/>
	<path class="st0" d="M87.8,54.1h7v2.2h-4.4v7.2h4.1v2.4h-4.1v7.8h4.4v2.4h-7C87.8,76.1,87.8,54.1,87.8,54.1z"/>
	<path class="st0" d="M103.3,67.6h2.4v4.6c0,2.6-1.3,4.1-4.1,4.1h-0.9c-2.6,0-4.1-1.3-4.1-4.1V58c0-2.6,1.3-4.1,4.1-4.1h0.9
		c2.6,0,3.9,1.3,3.9,3.9v3.9h-2.4v-3.9c0-1.1-0.7-1.7-1.7-1.7h-0.7c-1.1,0-1.7,0.7-1.7,1.7v14.4c0,1.1,0.7,1.7,1.7,1.7h0.7
		c1.1,0,1.7-0.7,1.7-1.7v-4.6H103.3z"/>
	<path class="st0" d="M112.5,76.1h-2.6V56.5h-3.3v-2.4h9.2v2.2h-3.3V76.1z"/>
	<path class="st0" d="M119.9,63.7h4.1v-9.6h2.6v22H124v-10h-4.1v10h-2.6v-22h2.6V63.7z"/>
	<path class="st0" d="M131.4,54.1v8.5h1.7c2.6,0,4.1,1.3,4.1,4.1V72c0,2.6-1.3,4.1-4.1,4.1h-4.4v-22H131.4z M134.7,72v-5.5
		c0-1.1-0.7-1.7-1.7-1.7h-1.7v8.7h1.7C134.3,73.7,134.7,73.1,134.7,72z M138.8,76.1v-22h2.6v22H138.8z"/>
	<path class="st0" d="M146.2,54.1v16.4l3.7-16.4h3.5v22H151V58.7l-3.9,17.4h-3.1v-22H146.2z M145.8,49.9v-0.4h1.7v0.2
		c0,0.7,0.2,0.9,0.9,0.9h0.2c0.7,0,0.9-0.2,0.9-0.9v-0.2h1.7v0.4c0,1.5-0.9,2.4-2.6,2.4h-0.4C146.5,52.3,145.8,51.7,145.8,49.9z"/>
	<path class="st0" d="M164.3,76.1h-2.6V56.5h-3.1v-2.4h9.2v2.2h-3.3v19.8H164.3z"/>
	<path class="st0" d="M169.1,54.1h7v2.2h-4.4v7.2h4.1v2.4h-4.1v7.8h4.4v2.4h-7V54.1z"/>
	<path class="st0" d="M180.7,63.7h4.1v-9.6h2.6v22h-2.6v-10h-4.1v10h-2.4v-22h2.6v9.6H180.7z"/>
	<path class="st0" d="M190.9,76.1v3.5h-2.4v-5.9h0.9c0.4-0.7,0.7-1.1,0.9-1.5c0.2-0.4,0.4-1.1,0.4-2.2c0.2-0.9,0.2-2.2,0.2-3.5V54.1
		h7.8v19.6h1.1v5.9h-2.4v-3.5H190.9z M192,73.7h4.4V56.3h-3.1v10.9c0,1.3,0,2.2-0.2,3.1c-0.2,0.9-0.2,1.5-0.4,2
		C192.5,72.6,192.3,73.1,192,73.7z"/>
	<path class="st0" d="M201.4,54.1h7v2.2H204v7.2h4.1v2.4H204v7.8h4.4v2.4h-7V54.1z"/>
	<path class="st0" d="M213,67.8v8.3h-2.6v-22h4.4c2.6,0,4.1,1.3,4.1,4.1v5.7c0,2.6-1.3,4.1-4.1,4.1H213V67.8z M216.5,58
		c0-1.1-0.7-1.7-1.7-1.7H213v9.2h1.7c1.1,0,1.7-0.7,1.7-1.7V58z"/>
</g>
<g>
	<g>
		<g>
			<ellipse class="st1" cx="21.6" cy="83.6" rx="1.3" ry="1.3"/>
			<path class="st1" d="M69,82.8l-7.6-11.9c-0.4-0.6-0.9-1-1.7-1.2c-0.7-0.2-1.4,0-2,0.3l-3,1.9c-0.6,0.4-1,0.9-1.2,1.7
				c-0.1,0.4-0.1,0.7,0,1.1c-1.7,0.3-3.5,0.2-5.1-0.4l-2.3-0.8c-1.5-0.5-3.1-0.1-4.2,0.9l-2-0.2c-1.3-0.2-2.6,0.1-3.7,0.7l-0.8,0.4
				c-0.6,0.3-1.3,0.3-1.8,0.1l-1.4-0.5c0.1-0.4,0.1-0.8,0.1-1.2c-0.2-0.7-0.6-1.3-1.2-1.7l-3-1.9c-1.2-0.8-2.8-0.4-3.6,0.8l-7.6,12
				c-0.4,0.6-0.5,1.3-0.3,2c0.2,0.7,0.6,1.3,1.2,1.7l3,1.9c0.4,0.3,0.9,0.4,1.4,0.4c0.9,0,1.7-0.4,2.2-1.2l0.1-0.1l1.7,1.1
				c-0.9,1.1-0.8,2.7,0.2,3.7c0.5,0.5,1.1,0.8,1.8,0.8c0,0.7,0.3,1.3,0.8,1.8s1.2,0.8,1.8,0.8c0,0.7,0.3,1.3,0.8,1.8
				c0.5,0.5,1.2,0.8,1.8,0.8c0,0.7,0.3,1.3,0.8,1.8c0.6,0.6,1.2,0.8,1.9,0.8s1.4-0.3,1.9-0.8l0.8-0.8l1.3,1.6l0.1,0.1
				c0.6,0.6,1.4,1,2.3,1c0.9,0,1.7-0.3,2.3-1c0.6-0.6,0.9-1.3,0.9-2.1c1.1,0.2,2.2-0.1,3-0.8l0.1-0.1c0.6-0.6,0.9-1.3,0.9-2.1
				c1.1,0.2,2.2-0.1,3-0.9c0.6-0.6,0.9-1.3,0.9-2.1c0.3,0.1,0.5,0.1,0.8,0.1c0.9,0,1.7-0.4,2.3-1.1c0.4-0.5,0.7-1.1,0.8-1.7l4-2.4
				c0.5,0.7,1.3,1.1,2.1,1.1c0.5,0,1-0.1,1.4-0.4l0,0l3-1.9c0.6-0.4,1-0.9,1.2-1.7C69.5,84.2,69.3,83.4,69,82.8z M45.5,78.4
				c-0.5-0.2-1.1,0-1.3,0.4l-1.1,1.7c-0.3,0.4-0.7,0.6-1.2,0.4c-0.6-0.2-0.9-0.8-0.8-1.3c0.3-1.2,0.7-2.3,1.4-3.3l0.1-0.2
				c0.6-0.9,1.7-1.3,2.8-0.9l2.3,0.8c2.1,0.7,4.4,0.8,6.6,0.4l6.3,9.9l-3.3,2c-0.2-0.3-0.4-0.7-0.6-0.9l-2.3-2.8
				c-1.9-2.4-4.5-4.2-7.3-5.4L45.5,78.4z M21.7,86.9l-3-1.9c-0.2-0.1-0.3-0.3-0.4-0.6c-0.1-0.2,0-0.4,0.1-0.7L26,71.9
				c0.3-0.4,0.8-0.5,1.2-0.3l3,1.9c0.2,0.1,0.3,0.3,0.4,0.6c0.1,0.2,0,0.4-0.1,0.7l-7.7,12C22.6,87.1,22,87.2,21.7,86.9z M27.4,89.7
				l2.2-2.2c0.2-0.2,0.4-0.3,0.7-0.3s0.5,0.1,0.7,0.3c0.4,0.4,0.4,1,0,1.3L28.8,91c-0.3,0.3-1,0.3-1.3,0S27.1,90.1,27.4,89.7z
				 M30.1,92.3l2.2-2.2l0,0l0.4-0.4c0.2-0.2,0.4-0.3,0.7-0.3c0.3,0,0.5,0.1,0.7,0.3l0,0c0.2,0.2,0.3,0.4,0.3,0.7
				c0,0.2-0.1,0.5-0.3,0.7l-2.7,2.7c-0.4,0.4-1,0.4-1.3,0C29.7,93.3,29.7,92.7,30.1,92.3z M32.7,94.9l2.2-2.2
				c0.2-0.2,0.4-0.3,0.7-0.3s0.5,0.1,0.7,0.3l0,0c0.2,0.2,0.3,0.4,0.3,0.7c0,0.3-0.1,0.5-0.3,0.7l-2.2,2.2c-0.4,0.4-1,0.4-1.3,0
				C32.3,95.9,32.3,95.3,32.7,94.9z M36.7,98.9c-0.3,0.3-1,0.3-1.3,0c-0.2-0.2-0.3-0.4-0.3-0.7c0-0.3,0.1-0.5,0.3-0.7l1.8-1.8
				c0.2-0.2,0.4-0.3,0.7-0.3s0.5,0.1,0.7,0.3c0.4,0.4,0.4,1,0,1.3L36.7,98.9z M55.5,90.7c-0.3,0.3-0.7,0.4-1.1,0.4h-0.1
				c-0.4,0-0.9-0.2-1.2-0.5l-0.3-0.4l0,0L50.6,88c-0.3-0.3-0.9-0.3-1.2,0s-0.3,0.9,0,1.2l2.2,2.2c0.3,0.3,0.4,0.7,0.4,1.1
				s-0.2,0.8-0.4,1.1c-0.6,0.6-1.6,0.6-2.2,0l-2.2-2.2c-0.3-0.3-0.9-0.3-1.2,0s-0.3,0.9,0,1.2l1.7,1.7c0.6,0.6,0.6,1.6,0.1,2.2
				c0,0-0.1,0-0.1,0.1c-0.6,0.6-1.6,0.6-2.2,0L43.9,95c-0.3-0.3-0.9-0.3-1.2,0s-0.3,0.9,0,1.2l1.1,1.1c0.3,0.3,0.4,0.7,0.4,1.1
				s-0.2,0.8-0.4,1.1c-0.6,0.6-1.6,0.6-2.2,0.1l-1.4-1.7c0.7-1.1,0.7-2.6-0.3-3.5l0,0c-0.4-0.4-0.9-0.6-1.4-0.7
				c0-0.1,0.1-0.3,0.1-0.4c0-0.7-0.3-1.4-0.8-1.9l0,0c-0.4-0.4-0.9-0.7-1.4-0.7c0-0.1,0.1-0.3,0.1-0.4c0-0.7-0.3-1.4-0.8-1.9l0,0
				c-0.5-0.5-1.2-0.8-1.9-0.8c-0.1,0-0.3,0-0.4,0.1c-0.1-0.5-0.3-1-0.7-1.4c-1.1-1.1-2.8-1.1-3.8,0l-1.1,1.1l-2-1.3l6.1-9.6l1.5,0.6
				c1.1,0.4,2.3,0.4,3.4-0.2l0.8-0.4c0.8-0.4,1.7-0.6,2.6-0.5l1,0.2c-0.6,1-0.9,2.1-1.2,3.2c-0.3,1.4,0.5,2.9,1.9,3.4H42
				c1.2,0.3,2.5-0.2,3.2-1.2l0.7-1.2l1.1,0.4c2.6,1.1,4.8,2.7,6.6,4.8l2.3,2.9l0.1,0.1c0.3,0.3,0.4,0.7,0.4,1.1
				C55.9,90,55.7,90.4,55.5,90.7z M67.6,84.5c-0.1,0.2-0.2,0.4-0.4,0.6l-3,1.9c-0.4,0.3-0.9,0.1-1.2-0.3l-7.6-11.9
				c-0.1-0.2-0.2-0.4-0.1-0.7c0.1-0.2,0.2-0.4,0.4-0.6l3-1.9c0.2-0.1,0.3-0.1,0.4-0.1c0.1,0,0.1,0,0.2,0c0.2,0.1,0.4,0.2,0.6,0.4
				l7.6,12C67.6,84,67.6,84.2,67.6,84.5z"/>
			<ellipse class="st1" cx="64.2" cy="83.6" rx="1.3" ry="1.3"/>
		</g>
	</g>
</g>
<g>
	<path class="st1" d="M50.8,20.9c-3.2,1.6-7.3,0-10.5-0.8c-0.8,0-1.6,0.8-2.4,0.8c0-2.4-0.8-4.9,0-6.5c1.6-1.6,4-0.8,7.3,0.8
		c1.6,0.8,4.1,0,5.7-0.8C50.8,16.9,50.8,18.5,50.8,20.9L50.8,20.9z"/>
	<g>
		<path class="st1" d="M24.5,46.6l8-2.9v25h0.1h5.6v-42l11.7,7v34.9h1.7h0.8h1V56.4l8.5,6.1v6.1h4V57.5l-4.1-2.6V42.4l-8.4-5.2V32
			l-15-9.2v-0.1h-0.1h-0.1v0.1l-8.1,3.3v13.5l-10.2,4.1v25h4.6L24.5,46.6z M53.4,41.3l5.8,3.5v8.4l-5.8-3.8V41.3z"/>
	</g>
	<line class="st2" x1="38.3" y1="14.7" x2="38.3" y2="24.4"/>
</g>
</svg>
