<svg width="13" height="15" viewBox="0 0 13 15" fill="none" xmlns="http://www.w3.org/2000/svg">
<g clip-path="url(#clip0)">
<path d="M5.5279 1.9413L6.1721 1.29711C6.44487 1.02434 6.88594 1.02434 7.1558 1.29711L12.7969 6.93528C13.0696 7.20804 13.0696 7.64911 12.7969 7.91898L7.1558 13.5601C6.88304 13.8328 6.44196 13.8328 6.1721 13.5601L5.5279 12.9159C5.25223 12.6402 5.25804 12.1904 5.53951 11.9205L9.03616 8.58929H0.696429C0.310491 8.58929 0 8.2788 0 7.89286V6.96429C0 6.57836 0.310491 6.26786 0.696429 6.26786H9.03616L5.53951 2.93661C5.25513 2.66675 5.24933 2.21697 5.5279 1.9413Z" fill="black"/>
</g>
<defs>
<clipPath id="clip0">
<rect width="13" height="14.8571" fill="white"/>
</clipPath>
</defs>
</svg>
