<svg width="25" height="25" viewBox="0 0 25 25" fill="none" xmlns="http://www.w3.org/2000/svg">
<path d="M2.26169 14.501L1.04135 13.2798C0.524629 12.7627 0.524629 11.9266 1.04135 11.4151L11.7221 0.721604C12.2388 0.204534 13.0743 0.204534 13.5856 0.721604L24.2663 11.4096C24.783 11.9266 24.783 12.7627 24.2663 13.2743L23.0459 14.4955C22.5237 15.018 21.6717 15.007 21.1605 14.4735L14.8554 7.85057V23.6597C14.8554 24.3913 14.2672 24.9799 13.5361 24.9799H11.777C11.0459 24.9799 10.4577 24.3913 10.4577 23.6597V7.85057L4.14717 14.479C3.63594 15.018 2.7839 15.029 2.26169 14.501V14.501Z" fill="white"/>
</svg>
