<svg width="15" height="15" viewBox="0 0 15 15" fill="none" xmlns="http://www.w3.org/2000/svg">
<path d="M14.4446 0.710202L11.3978 0.00709135C11.0667 -0.069079 10.7269 0.103769 10.5921 0.41431L9.18591 3.69549C9.06286 3.9826 9.14489 4.3195 9.38805 4.51579L11.1634 5.96888C10.1087 8.21591 8.26601 10.085 5.97211 11.1602L4.51901 9.38483C4.3198 9.14167 3.98582 9.05964 3.69872 9.18268L0.417533 10.5889C0.104063 10.7266 -0.0687855 11.0664 0.00738486 11.3975L0.710496 14.4443C0.783736 14.7607 1.06498 14.9892 1.39603 14.9892C8.89881 14.9892 14.9895 8.91023 14.9895 1.39573C14.9895 1.06762 14.7639 0.783443 14.4446 0.710202Z" fill="white"/>
</svg>
